<svg xmlns="http://www.w3.org/2000/svg" viewBox="0 0 369.67 95.88"><defs><style>.cls-1{fill:#00a0dd;}.cls-2{fill:#fff;}</style></defs><g id="Layer_2" data-name="Layer 2"><g id="Capa_3" data-name="Capa 3"><path class="cls-1" d="M37.55,44.71a9.4,9.4,0,1,1-9.4-9.4,9.4,9.4,0,0,1,9.4,9.4"></path><path class="cls-2" d="M28.15,60.71a16,16,0,1,1,16-16A16,16,0,0,1,28.15,60.71ZM54.3,19c-3.59-1.27-9.33-2.7-24-2.7a32.12,32.12,0,0,0-6.55.63A28.15,28.15,0,1,0,44.28,67.76C42.86,73.3,38.67,80.5,26.61,80.5,15.11,80.5,8.85,74,8.85,74l-6.29,7A33.63,33.63,0,0,0,27.12,91.22c17.17,0,29.14-9,29.14-27.47V45.83c0-.37,0-.75,0-1.13s0-.75,0-1.12v-.11h0a27.92,27.92,0,0,0-5.2-15.1l-.15-.2,4.46-3.25c2-1.42,2.07-2.12,2-3.22C57.29,20.37,55.76,19.48,54.3,19Z"></path><path class="cls-2" d="M297.85,24.91A32.32,32.32,0,0,0,296,21.34c-3.23-5.19-6.36-4.52-6.36-4.52a2.92,2.92,0,0,0-2.85,3.07c0,3.75.06,25.66.09,40.64V72.71h12.72c0-4.32.52-23.28.52-28.36s2.83-14,15.1-16.24l2.59-.56.07-11.3h-1.39a25.08,25.08,0,0,0-18.62,8.66"></path><path class="cls-2" d="M100,47.47c-1.62,2.1-3.76,4.79-5.88,7.09-4.61,5-8.83,6-11.05,5.36S79.21,58.41,79,51.41c0,0-.7-24.82-1-34.2H66.15c-.06,9.38-.23,37.05-.23,37.05-.07,10.23,4.48,18.6,16.8,18.6,3.85,0,8.49-.91,15.22-8.37a34.81,34.81,0,0,0,2.79-3.19,36.35,36.35,0,0,0,3,7c3.24,5.19,6.36,4.53,6.36,4.53a2.93,2.93,0,0,0,2.85-3.08c0-5.08,1-43.19,1-52.57H100.55c0,2.3-.46,20.3-.52,30.26"></path><path class="cls-2" d="M202.6,59.21a5.22,5.22,0,0,1-3.42.56c-2.48-.47-5.06-1.51-6.28-8.5,0,0-4.33-24.82-6-34.21H174.81c1.36,9.39,5.38,37.06,5.38,37.06,1.48,10.23,5.08,18.59,15.43,18.59a13.82,13.82,0,0,0,3.39-.46c-.31.23-1,1.43-1.83,7.28-1.1,7.94,2.24,16.35,5.61,16.35,2.15,0,2.91-1.08,3.79-3.86s21.28-75,21.28-75H213.67Z"></path><path class="cls-2" d="M277.88,34.45c.1-16.46-17.73-18.1-23.49-18.1h-.15c-5.76,0-23.62,2.45-23.73,20.68-.06,9.37-.08,12.63-.08,12.63-.07,10.21,5,23.31,23.45,23,13.36-.19,21.38-3.8,21.38-3.8l-.05-8.83s-17.29,3.3-25.77,1.07c-1.75-.46-4.43-2.06-5.35-6.39,1.88-.28,5.44-.91,11.37-2.27,20.9-4.77,22.38-11.57,22.42-18M243.8,45.38l0-5.49v-.51c0-7.61,2.85-10.53,10.4-10.53,6.93,0,10.36,2.21,10.34,5.91,0,2.42-.9,4.67-5.72,6.69C255.07,43,247,44.73,243.8,45.38"></path><path class="cls-2" d="M145.79,16.34c-13.36.74-21.38,4.7-21.38,4.7l0,9.91S141.74,27,150.23,28.8c6.1,1.29,5.78,7.71,5.78,7.71a84.84,84.84,0,0,0-11.8,1.2C123.44,41,121.84,49.13,121.8,55.6c-.11,16.46,17.27,17.11,23.48,17.11,9.46,0,23.88-1.16,23.88-18,0-9.37.08-16.25.08-16.25.07-10.22-5-23.1-23.45-22.07m10.34,34.43c0,7.6-1.12,10.07-10.5,10.07-6.93,0-10.56-2-10.54-5.72,0-2.41.9-4.66,5.72-6.69,3.79-1.58,11.61-2.29,15.32-2.61v5"></path><path class="cls-2" d="M369.58,16.79,369.67,0H358.45l-1.26,20.77A18.32,18.32,0,0,0,345,16.25h-3.64c-6.94,0-19.25,5.19-19.36,20.71,0,9.39-.1,17.16-.1,17.16-.07,10.23,4.48,18.59,16.8,18.59,3.86,0,8.49-.9,15.22-8.36.7-.78,2.28-2.16,2.87-2.84a47.9,47.9,0,0,0,3.24,6.87c3.23,5.19,6.36,4.53,6.36,4.53a2.93,2.93,0,0,0,2.85-3.08c0-2,.06-9.58.11-18.44,0-2,0-4.48.05-7.41,0-1.08,0-2.09,0-3l.13-24.2ZM356,47.33c-1.61,2.11-3.76,4.79-5.88,7.09-4.61,5-8.82,6-11.05,5.36s-3.84-1.52-3.79-8.51c0,0,0-.81.07-10.2,0-7.61,2.86-12.3,10.42-12.3s10.32,4.69,10.27,12.3c0,1.62,0,3.86,0,6.26"></path></g></g></svg>