<?xml version="1.0" encoding="UTF-8"?>
<svg id="Layer_1" data-name="Layer 1" xmlns="http://www.w3.org/2000/svg" viewBox="0 0 1920 1080">
  <defs>
    <style>
      .cls-1 {
        fill: #fff;
      }
    </style>
  </defs>
  <g>
    <path class="cls-1" d="m826.64,368.56c-.01-.8-.06-1.59-.06-2.4,0-70.29,56.98-127.27,127.27-127.27v-45.63c-95.49,0-172.89,77.4-172.89,172.9,0,.81.04,1.59.05,2.4h45.63Z"/>
    <path class="cls-1" d="m896.93,444.05c-.47-.36-.98-.67-1.44-1.05-41.71-31.44-50.03-90.75-18.6-132.46l-27.07-20.41c-42.72,56.66-31.4,137.22,25.25,179.96.48.34.97.67,1.47,1.01l20.4-27.06Z"/>
    <path class="cls-1" d="m1010.62,416.08c-.35.35-.64.67-.98,1-29.14,28.52-75.89,28.03-104.41-1.13l-18.92,18.51c38.74,39.6,102.24,40.29,141.84,1.55.34-.34.64-.68.97-1.01l-18.5-18.92Z"/>
    <path class="cls-1" d="m1007.26,357.21c.05.29.09.6.14.91,3.43,26.59-15.36,50.96-41.95,54.38l2.23,17.28c36.14-4.67,61.66-37.76,56.99-73.9-.03-.29-.1-.6-.14-.9l-17.26,2.24Z"/>
    <path class="cls-1" d="m1095.72,363.96c.01.81-2.32,1.62-2.32,2.41,0,70.29-56.98,127.27-127.26,127.27v45.62c95.49,0,172.9-77.41,172.9-172.89,0-.8-.05-1.61-.07-2.41h-43.24Z"/>
    <path class="cls-1" d="m1023.04,284.18c.49.34.97.68,1.46,1.04,41.71,31.45,50.02,90.76,18.57,132.47l27.07,20.42c42.74-56.68,31.43-137.23-25.23-179.96-.49-.36-.98-.67-1.46-1.04l-20.41,27.08Z"/>
    <path class="cls-1" d="m909.38,312.14c.32-.32.62-.67.97-1.01,29.15-28.52,75.9-28,104.42,1.15l18.92-18.51c-38.75-39.6-102.26-40.28-141.84-1.56-.35.34-.65.68-.99,1.01l18.53,18.91Z"/>
    <path class="cls-1" d="m912.72,371.03c-.05-.31-.09-.59-.14-.91-3.43-26.6,15.36-50.96,41.95-54.41l-2.22-17.27c-36.15,4.68-61.67,37.77-57,73.9.03.28.1.59.15.9l17.26-2.22Z"/>
  </g>
  <g>
    <path class="cls-1" d="m670.27,797.3c-4.17-6.7-11.61-9.67-19.19-9.67-11.02,0-22.48,5.2-22.48,17.71,0,9.67,5.36,13.98,22.18,19.35,16.38,5.21,31.55,10.56,31.55,31.24s-18.02,30.81-37.06,30.81c-12.2,0-25.3-4.02-32.44-14.59l10.71-8.78c4.47,7.74,13.4,11.76,22.47,11.76,10.7,0,22.92-6.24,22.92-18.31,0-12.94-8.78-15.17-27.52-21.43-14.9-4.91-26.2-11.46-26.2-29.01,0-20.25,17.41-30.35,35.87-30.35,11.75,0,21.71,3.26,29.45,12.36l-10.26,8.92Zm12.5,34.08c0-31.85,23.06-55.35,55.05-55.35s55.07,23.5,55.07,55.35-23.06,55.36-55.07,55.36-55.05-23.51-55.05-55.36Zm96.72,0c0-24.25-16.95-43.75-41.67-43.75s-41.66,19.5-41.66,43.75,16.96,43.75,41.66,43.75,41.67-19.49,41.67-43.75Zm19.34-52.67h12.49v93.75h49.49v11.6h-61.98v-105.35Zm74.22,0h12.51v105.35h-12.51v-105.35Zm28.44,0h40.49c20.68,0,51.64,13.83,51.64,52.67s-30.95,52.68-51.64,52.68h-40.49v-105.35Zm12.49,93.75h23.81c24.12,0,42.43-12.21,42.43-41.08s-18.3-41.08-42.43-41.08h-23.81v82.16Zm283.06-41.08c0-31.85,23.08-55.35,55.07-55.35s55.06,23.5,55.06,55.35-23.08,55.36-55.06,55.36-55.07-23.51-55.07-55.36Zm96.73,0c0-24.25-16.96-43.75-41.66-43.75s-41.67,19.5-41.67,43.75,16.96,43.75,41.67,43.75,41.66-19.49,41.66-43.75Zm-115.15-52.67v93.75h-17.3l-22.76-36.9c16.38-2.52,26.35-12.51,26.35-27.84,0-26.04-21.58-29-41.96-29h-26.93v93.75h-10.62l-39.86-93.75h-11.75l-46.42,105.35h14.14l10.88-25.9,4.9-11.6,21.89-51.78h.28l20.83,51.78,4.75,11.6,10.71,25.9h32.75v-47.32h16.05l28.58,47.32h37.98v-105.35h-12.51Zm-58.96,46.42h-11.14v-34.83h17.55c12.21,0,25.44,2.23,25.44,17.41,0,17.42-18,17.42-31.85,17.42Z"/>
    <path class="cls-1" d="m794.25,580.09h26.76v4.76h-21.64v14.26h20.11v4.76h-20.11v19.38h-5.11v-43.17Zm62.87,26.7c0,9.39-4.4,17.56-16.28,17.56s-16.28-8.17-16.28-17.56v-26.7h5.13v25.97c0,6.95,2.56,13.54,11.15,13.54s11.16-6.59,11.16-13.54v-25.97h5.12v26.7Zm7.14-26.7h6.46l25.01,35.85h.12v-35.85h5.11v43.17h-6.45l-25.01-35.85h-.12v35.85h-5.13v-43.17Zm43.26,0h16.58c8.48,0,21.16,5.66,21.16,21.58s-12.68,21.59-21.16,21.59h-16.58v-43.17Zm5.11,38.41h9.75c9.89,0,17.38-5,17.38-16.83s-7.49-16.82-17.38-16.82h-9.75v33.64Zm51.48-38.41h4.83l18.34,43.17h-5.96l-4.4-10.62h-21.58l-4.46,10.62h-5.78l19.02-43.17Zm2.32,6.59h-.13l-8.96,21.2h17.63l-8.54-21.2Zm53.43,2.31c-2.56-3.48-6.65-5.25-10.81-5.25-9.61,0-16.45,8.48-16.45,17.92,0,10.01,6.77,17.93,16.45,17.93,5.25,0,9.45-2.12,12.5-6.04l3.85,3.25c-3.85,5.17-9.44,7.55-16.35,7.55-12.36,0-21.94-9.59-21.94-22.68s9.13-22.68,21.94-22.68c5.85,0,11.59,2.02,15.25,6.76l-4.44,3.24Zm9.28-8.91h5.12v43.17h-5.12v-43.17Zm9.94,21.58c0-13.04,9.45-22.68,22.56-22.68s22.55,9.64,22.55,22.68-9.44,22.68-22.55,22.68-22.56-9.63-22.56-22.68Zm39.63,0c0-9.93-6.95-17.92-17.06-17.92s-17.06,7.99-17.06,17.92,6.94,17.93,17.06,17.93,17.06-7.99,17.06-17.93Zm-14.93-33.42h6.7l-8.71,8.78h-4.33l6.34-8.78Zm25.27,11.84h6.46l24.98,35.85h.12v-35.85h5.14v43.17h-6.46l-24.99-35.85h-.13v35.85h-5.11v-43.17Z"/>
    <path class="cls-1" d="m584.45,646.63h31.29c19.36,0,36.96,6.84,36.96,28.9s-19.67,29.2-34.57,29.2h-21.16v47.38h-12.51v-105.48Zm12.51,46.48h21.16c12.5,0,21.15-5.67,21.15-17.44s-8.64-17.43-21.15-17.43h-21.16v34.87Zm516.38-24.74c-6.26-8.48-16.26-12.81-26.39-12.81-23.54,0-40.21,20.71-40.21,43.8,0,24.43,16.53,43.81,40.21,43.81,12.82,0,23.11-5.2,30.54-14.76l9.4,7.9c-9.4,12.67-23.11,18.48-39.94,18.48-30.25,0-53.63-23.4-53.63-55.43s22.34-55.42,53.63-55.42c14.31,0,28.32,4.91,37.26,16.53l-10.87,7.9Zm-104.36-21.75v87.6h-.28l-61.09-87.6h-15.79v93.87h-67.51v-37.55h50.2v-11.63h-50.2v-33.08h53.79v-11.61h-192.52c-5.55-1.74-11.55-2.68-17.92-2.68-32.04,0-55.13,23.53-55.13,55.42s23.09,55.43,55.13,55.43,55.13-23.54,55.13-55.43c0-12.39-3.5-23.51-9.65-32.49v.02c-.09-.14-.18-.28-.26-.42-.42-.61-.87-1.2-1.32-1.78-5.69-6.37-17.3-6.47-17.3-6.47h63.7v93.88h12.53v-93.88h41.27v93.88h92.55v-87.61h.31l61.09,87.61h15.79v-105.48h-12.53Zm-259.6,52.74c0,24.29-16.98,43.81-41.72,43.81s-41.72-19.51-41.72-43.81,16.98-43.8,41.72-43.8,41.72,19.52,41.72,43.8Zm556.21,4.18c16.4-2.53,26.37-12.53,26.37-27.88,0-26.07-21.61-29.04-42.01-29.04h-26.98v93.87h-10.61l-39.92-93.87h-11.77l-41.36,93.87h-10.8v-93.87h-12.51v105.48h32.33l10.89-25.93,4.91-11.62,21.91-51.84h.29l20.86,51.84,4.76,11.62,10.73,25.93h32.81v-47.38h16.1l28.6,47.38h15.36l-29.96-48.56Zm-18.92-10.44h-11.17v-34.87h17.59c12.21,0,25.47,2.24,25.47,17.43,0,17.44-18.05,17.44-31.89,17.44Z"/>
  </g>
</svg>